<?xml version="1.0" encoding="utf-8"?>
<!-- Generator: Adobe Illustrator 19.0.0, SVG Export Plug-In . SVG Version: 6.00 Build 0)  -->
<svg version="1.1" xmlns="http://www.w3.org/2000/svg" xmlns:xlink="http://www.w3.org/1999/xlink" x="0px" y="0px"
	 viewBox="0 0 456 94" style="enable-background:new 0 0 456 94;" xml:space="preserve">
<style type="text/css">
	.st0{display:none;}
	.st1{display:inline;}
	.st2{fill:url(#XMLID_65_);}
	.st3{fill:#A3FBE9;}
	.st4{fill:#FFFFFF;}
	.st5{fill:url(#XMLID_66_);}
</style>
<g id="Layer_1" class="st0">
	<g id="XMLID_53_" class="st1">
		<linearGradient id="XMLID_65_" gradientUnits="userSpaceOnUse" x1="161.1795" y1="8.7359" x2="294.522" y2="85.7213">
			<stop  offset="0" style="stop-color:#3C848E"/>
			<stop  offset="0.5" style="stop-color:#1A5068"/>
			<stop  offset="1" style="stop-color:#3C848E"/>
		</linearGradient>
		<path id="XMLID_55_" class="st2" d="M262.9,0.6c-13.9,0-26.4,6.1-35,15.8c-8.6-9.7-21.1-15.8-35-15.8c-25.8,0-46.7,20.9-46.7,46.7
			c0,25.8,20.9,46.7,46.7,46.7c13.9,0,26.4-6.1,35-15.8c8.6,9.7,21.1,15.8,35,15.8c25.8,0,46.7-20.9,46.7-46.7
			C309.5,21.5,288.6,0.6,262.9,0.6z M192.9,73.3c-14.3,0-25.9-11.6-25.9-25.9c0-14.3,11.6-25.9,25.9-25.9c11.1,0,20.5,6.9,24.2,16.7
			c-0.3,1.5,0.7,5.5,0.7,9.3c0,3.9-0.9,7.6-0.6,9.1C213.4,66.4,203.9,73.3,192.9,73.3z M262.9,73.3c-11.1,0-20.6-7-24.3-16.8
			c0.3-1.5-0.5-5.3-0.5-9.1c0-3.9,0.9-7.8,0.6-9.3c3.7-9.7,13.2-16.7,24.2-16.7c14.3,0,25.9,11.6,25.9,25.9
			C288.8,61.7,277.2,73.3,262.9,73.3z"/>
		<path id="XMLID_54_" class="st3" d="M226.9,79.7c0.3-0.3,0.5-0.5,0.7-0.8c6.2-7,9.8-16.8,11-26.4c-0.3-2,1.3-10.2,1.7-12.7
			c-0.1-0.8,0.3-4.2,0.7-5c4.3-16.7,16.7-29.1,33.5-33.2c-3.6-0.9-7.3-1.3-11.1-1.3c-8.7,0-16.1,1.3-24.8,6.8
			c-8.6,5.4-18.1,15.3-20.7,28.5c0,0-2,21.9-2,21.9c-3.5,17.7-15.2,30.9-32.4,35.4c3.2,0.7,6.5,1.1,9.9,1.1c13,0,24.7-5.3,33.1-13.9
			C226.6,80,226.8,79.8,226.9,79.7z"/>
	</g>
	<g id="XMLID_48_" class="st1">
		<rect id="XMLID_52_" x="194.6" y="39.1" class="st3" width="67.4" height="16.5"/>
		<g id="XMLID_49_">
			<polygon id="XMLID_51_" class="st3" points="197,61.3 176.8,46.8 197,32.3 			"/>
			<polygon id="XMLID_50_" class="st3" points="258,32.3 278.2,46.8 258,61.3 			"/>
		</g>
	</g>
</g>
<g id="Layer_2">
	<g id="XMLID_390_">
		<path id="XMLID_391_" class="st4" d="M224.4,53.5H191v35.1h-10.7V9.3H230v8.4h-39v27.4h33.5V53.5z"/>
		<path id="XMLID_393_" class="st4" d="M274.7,88.6c-0.4-1.8-0.6-3.4-0.8-4.7c-0.2-1.4-0.3-2.7-0.4-4.1c-2,2.8-4.6,5.2-7.8,7.1
			c-3.2,1.9-6.7,2.9-10.4,2.9c-6.1,0-10.8-1.6-14-4.7c-3.2-3.1-4.8-7.5-4.8-13c0-5.6,2.3-10,6.8-13.2c4.6-3.2,10.7-4.8,18.6-4.8
			h11.7v-5.8c0-3.5-1.1-6.2-3.2-8.2c-2.1-2-5.1-3-8.9-3c-3.5,0-6.3,0.9-8.4,2.6c-2.1,1.7-3.2,3.8-3.2,6.3L239.6,46l-0.1-0.3
			c-0.3-4.3,1.8-8.2,6-11.8c4.3-3.6,9.8-5.3,16.5-5.3c6.7,0,12.1,1.7,16.1,5.1c4.1,3.4,6.1,8.3,6.1,14.7v28.4c0,2.1,0.1,4.1,0.3,6.1
			s0.6,3.9,1.2,5.8H274.7z M256.9,80.8c3.9,0,7.4-1,10.5-3c3.1-2,5.2-4.3,6.1-6.9v-9.6h-12c-4.3,0-7.8,1.1-10.4,3.3
			c-2.6,2.2-3.9,4.7-3.9,7.7c0,2.6,0.8,4.7,2.5,6.2C251.3,80,253.7,80.8,256.9,80.8z"/>
		<path id="XMLID_396_" class="st4" d="M334.2,72.8c0-2.4-0.9-4.3-2.7-5.8c-1.8-1.5-5.2-2.8-10.2-3.9c-6.9-1.5-12.3-3.6-16-6.3
			c-3.7-2.7-5.6-6.3-5.6-10.8c0-4.8,2-8.9,6.1-12.3c4.1-3.4,9.4-5.1,15.9-5.1c6.7,0,12.1,1.8,16.2,5.4c4.1,3.6,6.1,7.9,5.9,12.7
			l-0.1,0.3h-10.2c0-2.5-1.1-4.9-3.4-6.9c-2.2-2.1-5.1-3.1-8.5-3.1c-3.8,0-6.6,0.9-8.5,2.6c-1.9,1.7-2.8,3.7-2.8,6.1
			c0,2.3,0.8,4.1,2.4,5.4c1.6,1.3,4.9,2.4,10,3.5c7.2,1.5,12.7,3.7,16.5,6.5c3.7,2.8,5.6,6.4,5.6,11c0,5.2-2.1,9.5-6.3,12.8
			c-4.2,3.3-9.8,5-16.6,5c-7.5,0-13.4-1.9-17.8-5.7c-4.3-3.8-6.4-8.3-6.2-13.4l0.1-0.3h10.2c0.2,3.8,1.6,6.6,4.3,8.4
			c2.7,1.8,5.8,2.6,9.3,2.6c3.8,0,6.8-0.8,9-2.4C333.1,77.3,334.2,75.3,334.2,72.8z"/>
		<path id="XMLID_398_" class="st4" d="M373.2,15.4v14.2h11.2v8h-11.2v35.8c0,2.8,0.6,4.7,1.7,5.8c1.1,1.1,2.7,1.7,4.6,1.7
			c0.6,0,1.3-0.1,2.1-0.2c0.8-0.2,1.4-0.3,1.9-0.5l1.5,7.4c-0.8,0.7-2,1.2-3.5,1.6c-1.6,0.4-3.1,0.6-4.6,0.6c-4.4,0-7.8-1.3-10.4-4
			c-2.6-2.6-3.9-6.8-3.9-12.4V37.6h-9.4v-8h9.4V15.4H373.2z"/>
		<path id="XMLID_400_" class="st4" d="M423.5,40.2l18.5-31h13l-25.2,39.3l25.7,40h-12.8l-19-31.5l-19.1,31.5h-13l25.7-40L392.2,9.3
			h12.9L423.5,40.2z"/>
	</g>
	<g id="XMLID_116_">
		<linearGradient id="XMLID_66_" gradientUnits="userSpaceOnUse" x1="15.1968" y1="8.4287" x2="148.5393" y2="85.414">
			<stop  offset="0" style="stop-color:#3C848E"/>
			<stop  offset="0.5" style="stop-color:#1A5068"/>
			<stop  offset="1" style="stop-color:#3C848E"/>
		</linearGradient>
		<path id="XMLID_118_" class="st5" d="M116.9,0.3c-13.9,0-26.4,6.1-35,15.8c-8.6-9.7-21.1-15.8-35-15.8C21.1,0.3,0.2,21.1,0.2,46.9
			c0,25.8,20.9,46.7,46.7,46.7c13.9,0,26.4-6.1,35-15.8c8.6,9.7,21.1,15.8,35,15.8c25.8,0,46.7-20.9,46.7-46.7
			C163.5,21.1,142.6,0.3,116.9,0.3z M46.9,73c-14.3,0-25.9-11.6-25.9-25.9c0-14.3,11.6-25.9,25.9-25.9c11.1,0,20.5,6.9,24.2,16.7
			c-0.3,1.5,0.7,5.5,0.7,9.3c0,3.9-0.9,7.6-0.6,9.1C67.4,66.1,58,73,46.9,73z M116.9,73c-11.1,0-20.6-7-24.3-16.8
			c0.3-1.5-0.5-5.3-0.5-9.1c0-3.9,0.9-7.8,0.6-9.3c3.7-9.7,13.2-16.7,24.2-16.7c14.3,0,25.9,11.6,25.9,25.9
			C142.8,61.4,131.2,73,116.9,73z"/>
		<path id="XMLID_117_" class="st3" d="M80.9,79.4c0.3-0.3,0.5-0.5,0.7-0.8c6.2-7,9.8-16.8,11-26.4c-0.3-2,1.3-10.2,1.7-12.7
			c-0.1-0.8,0.3-4.2,0.7-5c4.3-16.7,16.7-29.1,33.5-33.2c-3.6-0.9-7.3-1.3-11.1-1.3c-8.7,0-16.1,1.3-24.8,6.8
			C84,12.2,74.5,22.1,71.9,35.3c0,0-2,21.9-2,21.9c-3.5,17.7-15.2,30.9-32.4,35.4c3.2,0.7,6.5,1.1,9.9,1.1c13,0,24.7-5.3,33.1-13.9
			C80.6,79.7,80.8,79.5,80.9,79.4z"/>
	</g>
	<g id="XMLID_111_">
		<rect id="XMLID_115_" x="48.6" y="38.8" class="st3" width="67.4" height="16.5"/>
		<g id="XMLID_112_">
			<polygon id="XMLID_114_" class="st3" points="51,61 30.8,46.5 51,32 			"/>
			<polygon id="XMLID_113_" class="st3" points="112,32 132.2,46.5 112,61 			"/>
		</g>
	</g>
</g>
</svg>
