<?xml version="1.0" encoding="UTF-8"?>
<svg width="56px" height="16px" viewBox="0 0 56 16" version="1.1" xmlns="http://www.w3.org/2000/svg" xmlns:xlink="http://www.w3.org/1999/xlink">
    <!-- Generator: Sketch 49.2 (51160) - http://www.bohemiancoding.com/sketch -->
    <title>Artboard 3@1x</title>
    <desc>Created with Sketch.</desc>
    <defs>
        <linearGradient x1="83.8348273%" y1="38.4541056%" x2="50%" y2="10.5585365%" id="linearGradient-1">
            <stop stop-color="#A3FBE9" offset="0%"></stop>
            <stop stop-color="#4B90AE" offset="100%"></stop>
        </linearGradient>
        <linearGradient x1="16.0137154%" y1="56.6557448%" x2="67.2065066%" y2="79.7422138%" id="linearGradient-2">
            <stop stop-color="#A3FBE9" offset="0%"></stop>
            <stop stop-color="#4B90AE" offset="100%"></stop>
        </linearGradient>
    </defs>
    <g id="Artboard-3" stroke="none" stroke-width="1" fill="none" fill-rule="evenodd">
        <g id="Group-3">
            <g id="Group-2" transform="translate(0.000000, 2.000000)">
                <path d="M16.5986412,7.28664125 C16.5746411,6.66263813 16.3766431,6.19464281 16.0046412,5.88264125 C15.6326394,5.57063969 15.2066436,5.41464125 14.7266412,5.41464125 C14.1506384,5.41464125 13.7066428,5.60063939 13.3946412,5.97264125 C13.0826397,6.34464311 12.9266412,6.77063885 12.9266412,7.25064125 C12.9266412,7.58664293 13.0106404,7.91663963 13.1786412,8.24064125 C13.3466421,8.56464287 13.7786378,8.85863993 14.4746412,9.12264125 L16.6346412,9.98664125 C18.0026481,10.5146439 11.1206445,11.2526455 10.4606412,10.4006412 C9.80063795,9.54863699 9.47064125,8.51064737 9.47064125,7.28664125 C9.47064125,6.51863741 9.61463981,5.80464455 9.90264125,5.14464125 C10.1906427,4.48463795 10.5806388,3.92064359 11.0726412,3.45264125 C11.5646437,2.98463891 12.134638,2.61864257 12.7826412,2.35464125 C13.4306445,2.09063993 14.1266375,1.95864125 14.8706412,1.95864125 C15.614645,1.95864125 16.3046381,2.09663987 16.9406412,2.37264125 C17.5766444,2.64864263 18.122639,3.02063891 18.5786412,3.48864125 C19.0346435,3.95664359 19.3946399,4.52063795 19.6586412,5.18064125 C19.9226426,5.84064455 20.0546412,7.54263753 20.0546412,8.28664125 L16.5986412,7.28664125 Z" id="s" fill="url(#linearGradient-1)" transform="translate(14.762641, 6.374000) rotate(90.000000) translate(-14.762641, -6.374000) "></path>
                <path d="M9.66894854,2.35494854 C10.1849511,3.2669531 10.4429485,4.26294314 10.4429485,5.34294854 C10.4429485,6.11095238 10.3049499,6.82494524 10.0289485,7.48494854 C9.75294716,8.14495184 9.37495094,8.72694602 8.89494854,9.23094854 C8.41494614,9.73495106 7.8389519,10.1309471 7.16694854,10.4189485 C6.49494518,10.70695 5.7629525,10.8509485 4.97094854,10.8509485 C4.25094494,10.8509485 3.56695178,10.7309497 2.91894854,10.4909485 C2.2709453,10.2509473 1.700951,9.90295082 1.20894854,9.44694854 C0.716946081,8.99094626 0.314950101,8.42095196 0.00294854131,7.73694854 C-0.309053019,7.05294512 -0.477051339,5.2549531 -0.501051459,4.34294854 L2.95494854,5.34294854 C3.0269489,5.84695106 3.20094716,6.31494638 3.47694854,6.74694854 C3.75294992,7.1789507 4.23894506,7.39494854 4.93494854,7.39494854 C5.46295118,7.39494854 5.93694644,7.22095028 6.35694854,6.87294854 C6.77695064,6.5249468 6.98694854,6.03895166 6.98694854,5.41494854 C6.98694854,4.91094602 6.85494986,4.47895034 6.59094854,4.11894854 C6.32694722,3.75894674 5.84695202,3.44694986 5.15094854,3.18294854 L3.38694854,2.53494854 C2.23494278,2.10294638 9.15294596,1.44294398 9.66894854,2.35494854 Z" id="s" fill="url(#linearGradient-2)" transform="translate(4.970949, 6.374000) rotate(90.000000) translate(-4.970949, -6.374000) "></path>
                <path d="M11.3164377,14.8545302 C11.8258819,14.7919129 12.1571336,13.6156127 12.0584209,12.2039552 C11.9782376,11.0572798 11.6387306,10.1038684 11.2390423,9.79110831 C11.2294979,9.31124487 11.0976854,8.89807964 10.8436011,8.55160108 C10.5795998,8.19159928 10.0996046,7.8796024 9.40360108,7.61560108 L7.63960108,6.96760108 C6.48759532,6.53559892 5.58160438,5.89360534 4.92160108,5.04160108 C4.26159778,4.18959682 3.93160108,3.1516072 3.93160108,1.92760108 C3.93160108,1.15959724 4.07559964,0.445604376 4.36360108,-0.214398924 C4.65160252,-0.874402224 5.04159862,-1.43839658 5.53360108,-1.90639892 C5.54773763,-1.91984589 5.56259243,-1.9297809 5.57811252,-1.93638326 C5.13764643,-1.66251957 5.37436505,-0.454009858 6.10937484,0.769251848 C6.52308335,1.45777843 7.00677843,2.00472436 7.43060042,2.30491239 C7.47133095,2.49920846 7.54099766,2.69143735 7.63960108,2.88160108 C7.80760192,3.2056027 8.2395976,3.49959976 8.93560108,3.76360108 L11.0956011,4.62760108 C12.4636079,5.15560372 13.4055985,5.87559652 13.9216011,6.78760108 C14.4376037,7.69960564 14.6956011,8.69559568 14.6956011,9.77560108 C14.6956011,10.5436049 14.5576025,11.2575978 14.2816011,11.9176011 C14.0055997,12.5776044 13.6276035,13.1595986 13.1476011,13.6636011 C12.6675987,14.1676036 12.0916044,14.5635996 11.4196011,14.8516011 C11.3815887,14.8678921 11.3473008,14.8683255 11.3164377,14.8545302 Z" id="s" fill="#A3FBE9" transform="translate(9.313601, 6.464000) rotate(90.000000) translate(-9.313601, -6.464000) "></path>
                <g id="Group" transform="translate(5.000000, 5.000000)" fill="#A3FBE9">
                    <polygon id="Rectangle-19" transform="translate(1.475758, 1.475758) rotate(-315.000000) translate(-1.475758, -1.475758) " points="0.789938172 0.425758041 2.51279508 2.14175373 0.438721004 2.52575804"></polygon>
                    <polygon id="Rectangle-19" transform="translate(8.475758, 1.475758) scale(-1, 1) rotate(-315.000000) translate(-8.475758, -1.475758) " points="7.78993817 0.425758041 9.51279508 2.14175373 7.438721 2.52575804"></polygon>
                    <rect id="Rectangle-20" x="1.65922185" y="0.73492424" width="6.65177703" height="1.5"></rect>
                </g>
            </g>
            <text id="FastX" font-family="TrebuchetMS-Bold, Trebuchet MS" font-size="14" font-weight="bold" fill="#FFFFFF">
                <tspan x="21" y="13">FastX</tspan>
            </text>
        </g>
    </g>
</svg>