<?xml version="1.0" encoding="UTF-8"?>
<svg width="23px" height="22px" viewBox="0 0 23 22" version="1.1" xmlns="http://www.w3.org/2000/svg" xmlns:xlink="http://www.w3.org/1999/xlink">
    <!-- Generator: Sketch 46.2 (44496) - http://www.bohemiancoding.com/sketch -->
    <title>Fill 3</title>
    <desc>Created with Sketch.</desc>
    <defs></defs>
    <g id="Page-1" stroke="none" stroke-width="1" fill="none" fill-rule="evenodd">
        <path d="M11.2889603,0 C5.05535834,0 0,5.05466526 0,11.2903465 C0,16.2784757 3.23462536,20.5097565 7.72096133,22.0026605 C8.2858252,22.1066232 8.49167129,21.7580017 8.49167129,21.4585892 C8.49167129,21.1910586 8.48196811,20.480647 8.47642343,19.5387451 C5.33605757,20.2207403 4.67346878,18.0250486 4.67346878,18.0250486 C4.15989317,16.7206636 3.41967892,16.3734282 3.41967892,16.3734282 C2.39460695,15.6734129 3.49730439,15.6872746 3.49730439,15.6872746 C4.63049754,15.7669793 5.22655021,16.8509634 5.22655021,16.8509634 C6.23360199,18.5760508 7.86928141,18.077723 8.51246383,17.7887068 C8.61504033,17.0595819 8.90682891,16.5619472 9.2291132,16.2798618 C6.72222656,15.9950041 4.08642621,15.026072 4.08642621,10.6998385 C4.08642621,9.46753427 4.52653487,8.45909632 5.24872892,7.67036616 C5.13229072,7.38481535 4.74485649,6.23637433 5.35962244,4.68247888 C5.35962244,4.68247888 6.30706895,4.37890787 8.46394791,5.83993 C9.36426468,5.58903341 10.3304245,5.4642782 11.2903465,5.45942661 C12.2495755,5.4642782 13.2150422,5.58903341 14.1167451,5.83993 C16.2722379,4.37890787 17.2182982,4.68247888 17.2182982,4.68247888 C17.8344504,6.23637433 17.4470161,7.38481535 17.331271,7.67036616 C18.0548512,8.45909632 18.4914945,9.46753427 18.4914945,10.6998385 C18.4914945,15.0371613 15.8515356,15.9915387 13.337025,16.2708517 C13.7417864,16.6194732 14.1028834,17.3083992 14.1028834,18.3618877 C14.1028834,19.8707326 14.0890217,21.0884821 14.0890217,21.4585892 C14.0890217,21.760774 14.2927886,22.1121679 14.8652764,22.0019675 C19.3481469,20.505598 22.5799999,16.2770895 22.5799999,11.2903465 C22.5799999,5.05466526 17.5246416,0 11.2889603,0" id="Fill-3" fill="#FFFFFF"></path>
    </g>
</svg>