<?xml version="1.0" encoding="UTF-8"?>
<svg width="18px" height="15px" viewBox="0 0 18 15" version="1.1" xmlns="http://www.w3.org/2000/svg" xmlns:xlink="http://www.w3.org/1999/xlink">
    <!-- Generator: Sketch 46.2 (44496) - http://www.bohemiancoding.com/sketch -->
    <title>twitter-small</title>
    <desc>Created with Sketch.</desc>
    <defs></defs>
    <g id="Page-1" stroke="none" stroke-width="1" fill="none" fill-rule="evenodd">
        <path d="M3.8668775,3.45742854 C6.71179452,4.80754175 9.11607739,4.72965061 9.11607739,4.72965061 C9.11607739,4.72965061 8.20459896,1.7438231 11.0218956,0.419673824 C13.839192,-0.904475669 15.7778968,1.32799751 15.7778968,1.32799751 C15.7778968,1.32799751 16.2692454,1.20120837 16.6353483,1.07441924 C17.0014512,0.947630105 17.5313369,0.721220928 17.5313369,0.721220928 L16.6631987,2.17784612 L18,2.04464497 C18,2.04464497 17.8352356,2.27109924 17.3002256,2.73234287 C16.7652155,3.19358648 16.5447116,3.43187051 16.5447116,3.43187051 C16.5447116,3.43187051 16.7358315,7.0259075 14.721755,9.79298082 C12.7076783,12.560054 10.1053734,14.2207794 6.32510677,14.5703045 C2.54484018,14.9198295 0.0828616607,13.4798284 0.0828616607,13.4798284 C0.0828616607,13.4798284 1.73615905,13.3911338 2.78967591,13.0124815 C3.84319283,12.6338294 5.35838739,11.6364046 5.35838739,11.6364046 C5.35838739,11.6364046 3.20398419,11.0132755 2.43060871,10.3122551 C1.65723321,9.61123481 1.46388934,9.19581536 1.46388934,9.19581536 L3.59067196,9.16985165 C3.59067196,9.16985165 1.35340712,8.05341188 0.718134393,7.17064555 C0.0828615968,6.28787925 0,5.43107661 0,5.43107661 L1.63508973,6.05174876 C1.63508973,6.05174876 0.276205632,4.31463683 0.0828616607,2.96452363 C-0.110482214,1.61441042 0.331446643,0.887426387 0.331446643,0.887426387 C0.331446643,0.887426387 1.02196049,2.10731532 3.8668775,3.45742854 Z" id="twitter-small" fill="#FFFFFF"></path>
    </g>
</svg>