<?xml version="1.0" encoding="utf-8"?>
<!-- Generator: Adobe Illustrator 19.0.0, SVG Export Plug-In . SVG Version: 6.00 Build 0)  -->
<svg version="1.1" id="Layer_1" xmlns="http://www.w3.org/2000/svg" xmlns:xlink="http://www.w3.org/1999/xlink" x="0px" y="0px"
	 viewBox="0 0 164 94" style="enable-background:new 0 0 164 94;" xml:space="preserve">
<style type="text/css">
	.st0{fill:url(#XMLID_2_);}
	.st1{fill:#A3FBE9;}
</style>
<g id="XMLID_53_">
	<linearGradient id="XMLID_2_" gradientUnits="userSpaceOnUse" x1="15.1795" y1="8.7359" x2="148.522" y2="85.7213">
		<stop  offset="0" style="stop-color:#3C848E"/>
		<stop  offset="0.5" style="stop-color:#1A5068"/>
		<stop  offset="1" style="stop-color:#3C848E"/>
	</linearGradient>
	<path id="XMLID_55_" class="st0" d="M116.9,0.6c-13.9,0-26.4,6.1-35,15.8c-8.6-9.7-21.1-15.8-35-15.8C21.1,0.6,0.2,21.5,0.2,47.2
		c0,25.8,20.9,46.7,46.7,46.7c13.9,0,26.4-6.1,35-15.8c8.6,9.7,21.1,15.8,35,15.8c25.8,0,46.7-20.9,46.7-46.7
		C163.5,21.5,142.6,0.6,116.9,0.6z M46.9,73.3c-14.3,0-25.9-11.6-25.9-25.9c0-14.3,11.6-25.9,25.9-25.9c11.1,0,20.5,6.9,24.2,16.7
		c-0.3,1.5,0.7,5.5,0.7,9.3c0,3.9-0.9,7.6-0.6,9.1C67.4,66.4,57.9,73.3,46.9,73.3z M116.9,73.3c-11.1,0-20.6-7-24.3-16.8
		c0.3-1.5-0.5-5.3-0.5-9.1c0-3.9,0.9-7.8,0.6-9.3c3.7-9.7,13.2-16.7,24.2-16.7c14.3,0,25.9,11.6,25.9,25.9
		C142.8,61.7,131.2,73.3,116.9,73.3z"/>
	<path id="XMLID_54_" class="st1" d="M80.9,79.7c0.3-0.3,0.5-0.5,0.7-0.8c6.2-7,9.8-16.8,11-26.4c-0.3-2,1.3-10.2,1.7-12.7
		c-0.1-0.8,0.3-4.2,0.7-5c4.3-16.7,16.7-29.1,33.5-33.2c-3.6-0.9-7.3-1.3-11.1-1.3c-8.7,0-16.1,1.3-24.8,6.8
		C84,12.5,74.5,22.4,71.9,35.6c0,0-2,21.9-2,21.9c-3.5,17.7-15.2,30.9-32.4,35.4c3.2,0.7,6.5,1.1,9.9,1.1c13,0,24.7-5.3,33.1-13.9
		C80.6,80,80.8,79.8,80.9,79.7z"/>
</g>
<g id="XMLID_48_">
	<rect id="XMLID_52_" x="48.6" y="39.1" class="st1" width="67.4" height="16.5"/>
	<g id="XMLID_49_">
		<polygon id="XMLID_51_" class="st1" points="51,61.3 30.8,46.8 51,32.3 		"/>
		<polygon id="XMLID_50_" class="st1" points="112,32.3 132.2,46.8 112,61.3 		"/>
	</g>
</g>
</svg>
